<svg width="22" height="23" viewBox="0 0 22 23" fill="none" xmlns="http://www.w3.org/2000/svg">
<g clip-path="url(#clip0)">
<path d="M11.1074 0.644531C5.3085 0.644531 0.607422 5.56947 0.607422 11.6445C0.607422 17.7196 5.3085 22.6445 11.1074 22.6445C11.4238 22.6445 11.7389 22.6297 12.0525 22.6001C12.344 22.5727 12.633 22.5308 12.9198 22.4784L13.03 22.458C18.3616 21.4156 22.0583 16.2911 21.5596 10.6332C21.0609 4.97524 16.5311 0.646322 11.1074 0.644531ZM10.2639 21.8723H10.2391C9.96685 21.8471 9.69666 21.809 9.42886 21.7601C9.41348 21.7572 9.3981 21.7554 9.38306 21.7524C9.12124 21.7033 8.86216 21.6425 8.60564 21.5714L8.5436 21.5547C8.29341 21.4837 8.04595 21.4011 7.80208 21.3095C7.77678 21.3 7.75132 21.2916 7.72603 21.2817C7.48694 21.1897 7.25213 21.0866 7.0209 20.975C6.99219 20.9616 6.96348 20.9487 6.93477 20.9344C6.70798 20.8244 6.48565 20.7006 6.26758 20.5702C6.23682 20.552 6.20571 20.5337 6.17495 20.5156C5.9603 20.3844 5.75061 20.2437 5.54485 20.0951C5.51375 20.0723 5.4823 20.0503 5.45137 20.0276C5.2492 19.8773 5.05215 19.7178 4.86023 19.551L4.80742 19.5026V16.4112C4.80999 14.1847 6.53213 12.3806 8.65742 12.3779H13.5574C15.6827 12.3806 17.4049 14.1847 17.4074 16.4112V19.503L17.3609 19.5436C17.1653 19.7148 16.9645 19.8766 16.7582 20.0295C16.7308 20.0496 16.7032 20.0687 16.676 20.0884C16.4678 20.2399 16.2545 20.3824 16.0361 20.5163C16.0088 20.533 15.9808 20.5487 15.9536 20.5652C15.7323 20.6972 15.5072 20.8218 15.2777 20.934C15.2514 20.9469 15.2249 20.9589 15.1982 20.9707C14.9651 21.0833 14.7283 21.187 14.4875 21.2797C14.4635 21.289 14.4394 21.2971 14.4174 21.3059C14.1723 21.3979 13.9238 21.4812 13.6723 21.5526L13.6119 21.5683C13.3551 21.6394 13.0958 21.7007 12.8337 21.7499C12.8186 21.7528 12.8036 21.7547 12.7886 21.7572C12.5204 21.8063 12.2499 21.8444 11.9775 21.8698H11.9527C11.6728 21.8951 11.3927 21.9087 11.1091 21.9087C10.8256 21.9087 10.5433 21.8976 10.2639 21.8723ZM18.1074 18.8232V16.4112C18.1045 13.7799 16.0691 11.6476 13.5574 11.6445H8.65742C6.14573 11.6476 4.11033 13.7799 4.10742 16.4112V18.8228C0.337744 14.7922 0.379785 8.32985 4.20142 4.35327C8.02305 0.376872 14.1918 0.376872 18.0134 4.35327C21.8351 8.32985 21.8771 14.7925 18.1074 18.8232Z" fill="#ADADAD"/>
<path d="M11.1074 3.57812C9.17439 3.57812 7.60742 5.21971 7.60742 7.24479C7.60742 9.26987 9.17439 10.9115 11.1074 10.9115C13.0405 10.9115 14.6074 9.26987 14.6074 7.24479C14.6054 5.22061 13.0396 3.58027 11.1074 3.57812ZM11.1074 10.1781C9.56096 10.1781 8.30742 8.86489 8.30742 7.24479C8.30742 5.62469 9.56096 4.31146 11.1074 4.31146C12.6539 4.31146 13.9074 5.62469 13.9074 7.24479C13.9057 8.864 12.653 10.1763 11.1074 10.1781Z" fill="#ADADAD"/>
</g>
<defs>
<clipPath id="clip0">
<rect width="21" height="22" fill="white" transform="translate(0.607422 0.644531)"/>
</clipPath>
</defs>
</svg>
